<mxfile host="app.diagrams.net" agent="Mozilla/5.0 (X11; Linux x86_64) AppleWebKit/537.36 (KHTML, like Gecko) Chrome/135.0.0.0 Safari/537.36" version="26.2.7">
  <diagram name="Page-1" id="vHG7mOKKZMKuYX-PGG-n">
    <mxGraphModel dx="948" dy="615" grid="1" gridSize="10" guides="1" tooltips="1" connect="1" arrows="1" fold="1" page="1" pageScale="1" pageWidth="1100" pageHeight="850" math="0" shadow="0">
      <root>
        <mxCell id="0" />
        <mxCell id="1" parent="0" />
        <mxCell id="097z2trLRk12nKmmqsXY-2" value="USER" style="rounded=0;whiteSpace=wrap;html=1;fillColor=none;" parent="1" vertex="1">
          <mxGeometry x="280" y="345" width="110" height="50" as="geometry" />
        </mxCell>
        <mxCell id="097z2trLRk12nKmmqsXY-5" value="&lt;div&gt;creates&lt;/div&gt;" style="shape=rhombus;perimeter=rhombusPerimeter;whiteSpace=wrap;html=1;align=center;fillColor=none;" parent="1" vertex="1">
          <mxGeometry x="470" y="340" width="120" height="60" as="geometry" />
        </mxCell>
        <mxCell id="097z2trLRk12nKmmqsXY-6" value="" style="endArrow=none;html=1;rounded=0;entryX=0;entryY=0.5;entryDx=0;entryDy=0;exitX=1;exitY=0.5;exitDx=0;exitDy=0;" parent="1" source="097z2trLRk12nKmmqsXY-2" target="097z2trLRk12nKmmqsXY-5" edge="1">
          <mxGeometry width="50" height="50" relative="1" as="geometry">
            <mxPoint x="510" y="450" as="sourcePoint" />
            <mxPoint x="560" y="400" as="targetPoint" />
          </mxGeometry>
        </mxCell>
        <mxCell id="097z2trLRk12nKmmqsXY-7" value="" style="endArrow=none;html=1;rounded=0;exitX=1;exitY=0.5;exitDx=0;exitDy=0;entryX=0.01;entryY=0.583;entryDx=0;entryDy=0;entryPerimeter=0;" parent="1" target="097z2trLRk12nKmmqsXY-31" edge="1">
          <mxGeometry width="50" height="50" relative="1" as="geometry">
            <mxPoint x="590" y="369.5" as="sourcePoint" />
            <mxPoint x="670" y="370" as="targetPoint" />
          </mxGeometry>
        </mxCell>
        <mxCell id="097z2trLRk12nKmmqsXY-9" value="" style="ellipse;whiteSpace=wrap;html=1;aspect=fixed;" parent="1" vertex="1">
          <mxGeometry x="220" y="345" width="10" height="10" as="geometry" />
        </mxCell>
        <mxCell id="097z2trLRk12nKmmqsXY-10" value="" style="endArrow=none;html=1;rounded=0;exitX=0.985;exitY=0.713;exitDx=0;exitDy=0;exitPerimeter=0;entryX=-0.007;entryY=0.204;entryDx=0;entryDy=0;entryPerimeter=0;" parent="1" source="097z2trLRk12nKmmqsXY-9" target="097z2trLRk12nKmmqsXY-2" edge="1">
          <mxGeometry width="50" height="50" relative="1" as="geometry">
            <mxPoint x="230" y="365" as="sourcePoint" />
            <mxPoint x="270" y="365" as="targetPoint" />
          </mxGeometry>
        </mxCell>
        <mxCell id="097z2trLRk12nKmmqsXY-11" value="name" style="text;html=1;align=center;verticalAlign=middle;resizable=0;points=[];autosize=1;strokeColor=none;fillColor=none;" parent="1" vertex="1">
          <mxGeometry x="170" y="335" width="50" height="30" as="geometry" />
        </mxCell>
        <mxCell id="097z2trLRk12nKmmqsXY-13" value="" style="endArrow=none;html=1;rounded=0;exitX=1;exitY=0.5;exitDx=0;exitDy=0;entryX=0;entryY=0.5;entryDx=0;entryDy=0;" parent="1" target="097z2trLRk12nKmmqsXY-2" edge="1">
          <mxGeometry width="50" height="50" relative="1" as="geometry">
            <mxPoint x="230" y="370" as="sourcePoint" />
            <mxPoint x="270" y="375" as="targetPoint" />
          </mxGeometry>
        </mxCell>
        <mxCell id="097z2trLRk12nKmmqsXY-14" value="email" style="text;html=1;align=center;verticalAlign=middle;resizable=0;points=[];autosize=1;strokeColor=none;fillColor=none;" parent="1" vertex="1">
          <mxGeometry x="170" y="355" width="50" height="30" as="geometry" />
        </mxCell>
        <mxCell id="097z2trLRk12nKmmqsXY-15" value="" style="ellipse;whiteSpace=wrap;html=1;aspect=fixed;" parent="1" vertex="1">
          <mxGeometry x="220" y="385" width="10" height="10" as="geometry" />
        </mxCell>
        <mxCell id="097z2trLRk12nKmmqsXY-16" value="" style="endArrow=none;html=1;rounded=0;exitX=1;exitY=0.5;exitDx=0;exitDy=0;entryX=-0.001;entryY=0.76;entryDx=0;entryDy=0;entryPerimeter=0;" parent="1" source="097z2trLRk12nKmmqsXY-15" target="097z2trLRk12nKmmqsXY-2" edge="1">
          <mxGeometry width="50" height="50" relative="1" as="geometry">
            <mxPoint x="230" y="395" as="sourcePoint" />
            <mxPoint x="270" y="395" as="targetPoint" />
          </mxGeometry>
        </mxCell>
        <mxCell id="097z2trLRk12nKmmqsXY-17" value="password" style="text;html=1;align=center;verticalAlign=middle;resizable=0;points=[];autosize=1;strokeColor=none;fillColor=none;" parent="1" vertex="1">
          <mxGeometry x="150" y="375" width="70" height="30" as="geometry" />
        </mxCell>
        <mxCell id="097z2trLRk12nKmmqsXY-18" value="" style="ellipse;whiteSpace=wrap;html=1;aspect=fixed;" parent="1" vertex="1">
          <mxGeometry x="810" y="351" width="10" height="10" as="geometry" />
        </mxCell>
        <mxCell id="097z2trLRk12nKmmqsXY-22" value="" style="endArrow=none;html=1;rounded=0;exitX=1.005;exitY=0.275;exitDx=0;exitDy=0;exitPerimeter=0;entryX=0;entryY=0.5;entryDx=0;entryDy=0;" parent="1" source="097z2trLRk12nKmmqsXY-31" target="097z2trLRk12nKmmqsXY-18" edge="1">
          <mxGeometry width="50" height="50" relative="1" as="geometry">
            <mxPoint x="769.9999999999999" y="364.56" as="sourcePoint" />
            <mxPoint x="810" y="361" as="targetPoint" />
          </mxGeometry>
        </mxCell>
        <mxCell id="097z2trLRk12nKmmqsXY-28" value="" style="endArrow=none;html=1;rounded=0;exitX=0.985;exitY=0.713;exitDx=0;exitDy=0;exitPerimeter=0;entryX=0;entryY=0.5;entryDx=0;entryDy=0;" parent="1" target="097z2trLRk12nKmmqsXY-34" edge="1">
          <mxGeometry width="50" height="50" relative="1" as="geometry">
            <mxPoint x="769.9999999999999" y="390" as="sourcePoint" />
            <mxPoint x="810" y="390" as="targetPoint" />
          </mxGeometry>
        </mxCell>
        <mxCell id="097z2trLRk12nKmmqsXY-29" value="" style="endArrow=none;html=1;rounded=0;exitX=0.985;exitY=0.713;exitDx=0;exitDy=0;exitPerimeter=0;entryX=0;entryY=0.5;entryDx=0;entryDy=0;" parent="1" target="097z2trLRk12nKmmqsXY-33" edge="1">
          <mxGeometry width="50" height="50" relative="1" as="geometry">
            <mxPoint x="769.9999999999999" y="374.57" as="sourcePoint" />
            <mxPoint x="810.15" y="377.44" as="targetPoint" />
          </mxGeometry>
        </mxCell>
        <mxCell id="097z2trLRk12nKmmqsXY-30" value="" style="endArrow=none;html=1;rounded=0;exitX=0.985;exitY=0.713;exitDx=0;exitDy=0;exitPerimeter=0;entryX=0;entryY=0.5;entryDx=0;entryDy=0;" parent="1" target="097z2trLRk12nKmmqsXY-32" edge="1">
          <mxGeometry width="50" height="50" relative="1" as="geometry">
            <mxPoint x="770.0000000000001" y="341" as="sourcePoint" />
            <mxPoint x="810" y="341" as="targetPoint" />
          </mxGeometry>
        </mxCell>
        <mxCell id="097z2trLRk12nKmmqsXY-31" value="TASK" style="rounded=0;whiteSpace=wrap;html=1;fillColor=none;" parent="1" vertex="1">
          <mxGeometry x="660" y="341" width="110" height="50" as="geometry" />
        </mxCell>
        <mxCell id="097z2trLRk12nKmmqsXY-32" value="" style="ellipse;whiteSpace=wrap;html=1;aspect=fixed;" parent="1" vertex="1">
          <mxGeometry x="810" y="331" width="10" height="10" as="geometry" />
        </mxCell>
        <mxCell id="097z2trLRk12nKmmqsXY-33" value="" style="ellipse;whiteSpace=wrap;html=1;aspect=fixed;" parent="1" vertex="1">
          <mxGeometry x="810" y="371" width="10" height="10" as="geometry" />
        </mxCell>
        <mxCell id="097z2trLRk12nKmmqsXY-34" value="" style="ellipse;whiteSpace=wrap;html=1;aspect=fixed;" parent="1" vertex="1">
          <mxGeometry x="810" y="390" width="10" height="10" as="geometry" />
        </mxCell>
        <mxCell id="097z2trLRk12nKmmqsXY-35" value="title" style="text;html=1;align=left;verticalAlign=middle;resizable=0;points=[];autosize=1;strokeColor=none;fillColor=none;" parent="1" vertex="1">
          <mxGeometry x="830" y="319" width="40" height="30" as="geometry" />
        </mxCell>
        <mxCell id="OTOVHvQYVz1heglmI_JG-1" value="description" style="text;html=1;align=left;verticalAlign=middle;resizable=0;points=[];autosize=1;strokeColor=none;fillColor=none;" parent="1" vertex="1">
          <mxGeometry x="830" y="341" width="80" height="30" as="geometry" />
        </mxCell>
        <mxCell id="OTOVHvQYVz1heglmI_JG-2" value="status" style="text;html=1;align=left;verticalAlign=middle;resizable=0;points=[];autosize=1;strokeColor=none;fillColor=none;" parent="1" vertex="1">
          <mxGeometry x="830" y="361" width="60" height="30" as="geometry" />
        </mxCell>
        <mxCell id="OTOVHvQYVz1heglmI_JG-5" value="due_date" style="text;html=1;align=center;verticalAlign=middle;resizable=0;points=[];autosize=1;strokeColor=none;fillColor=none;" parent="1" vertex="1">
          <mxGeometry x="820" y="381" width="70" height="30" as="geometry" />
        </mxCell>
        <mxCell id="OTOVHvQYVz1heglmI_JG-6" value="" style="endArrow=none;html=1;rounded=0;exitX=0.985;exitY=0.713;exitDx=0;exitDy=0;exitPerimeter=0;entryX=-0.021;entryY=0.552;entryDx=0;entryDy=0;entryPerimeter=0;" parent="1" target="OTOVHvQYVz1heglmI_JG-8" edge="1">
          <mxGeometry width="50" height="50" relative="1" as="geometry">
            <mxPoint x="760.0000000000001" y="340" as="sourcePoint" />
            <mxPoint x="810" y="310" as="targetPoint" />
            <Array as="points">
              <mxPoint x="770" y="315" />
            </Array>
          </mxGeometry>
        </mxCell>
        <mxCell id="OTOVHvQYVz1heglmI_JG-7" value="" style="ellipse;whiteSpace=wrap;html=1;aspect=fixed;fillColor=light-dark(#FFFFFF,#FEF8FF);" parent="1" vertex="1">
          <mxGeometry x="220" y="365" width="10" height="10" as="geometry" />
        </mxCell>
        <mxCell id="OTOVHvQYVz1heglmI_JG-8" value="" style="ellipse;whiteSpace=wrap;html=1;aspect=fixed;fillColor=light-dark(#FFFFFF,#FEF8FF);" parent="1" vertex="1">
          <mxGeometry x="810" y="310" width="10" height="10" as="geometry" />
        </mxCell>
        <mxCell id="OTOVHvQYVz1heglmI_JG-9" value="id" style="text;html=1;align=center;verticalAlign=middle;resizable=0;points=[];autosize=1;strokeColor=none;fillColor=none;" parent="1" vertex="1">
          <mxGeometry x="820" y="300" width="30" height="30" as="geometry" />
        </mxCell>
        <mxCell id="OTOVHvQYVz1heglmI_JG-10" value="(0, n)" style="text;html=1;align=center;verticalAlign=middle;resizable=0;points=[];autosize=1;strokeColor=none;fillColor=none;" parent="1" vertex="1">
          <mxGeometry x="390" y="345" width="50" height="30" as="geometry" />
        </mxCell>
        <mxCell id="OTOVHvQYVz1heglmI_JG-11" value="(1, 1)" style="text;html=1;align=center;verticalAlign=middle;resizable=0;points=[];autosize=1;strokeColor=none;fillColor=none;" parent="1" vertex="1">
          <mxGeometry x="610" y="345" width="50" height="30" as="geometry" />
        </mxCell>
        <mxCell id="OTOVHvQYVz1heglmI_JG-12" value="" style="endArrow=none;html=1;rounded=0;exitX=0.989;exitY=0.604;exitDx=0;exitDy=0;entryX=0;entryY=0;entryDx=0;entryDy=0;exitPerimeter=0;" parent="1" source="OTOVHvQYVz1heglmI_JG-13" target="097z2trLRk12nKmmqsXY-2" edge="1">
          <mxGeometry width="50" height="50" relative="1" as="geometry">
            <mxPoint x="230" y="326" as="sourcePoint" />
            <mxPoint x="280" y="326" as="targetPoint" />
          </mxGeometry>
        </mxCell>
        <mxCell id="OTOVHvQYVz1heglmI_JG-13" value="" style="ellipse;whiteSpace=wrap;html=1;aspect=fixed;fillColor=light-dark(#FFFFFF,#FEF8FF);" parent="1" vertex="1">
          <mxGeometry x="220" y="325" width="10" height="10" as="geometry" />
        </mxCell>
        <mxCell id="OTOVHvQYVz1heglmI_JG-14" value="id" style="text;html=1;align=center;verticalAlign=middle;resizable=0;points=[];autosize=1;strokeColor=none;fillColor=none;" parent="1" vertex="1">
          <mxGeometry x="190" y="315" width="30" height="30" as="geometry" />
        </mxCell>
      </root>
    </mxGraphModel>
  </diagram>
</mxfile>
